<?xml version="1.0" encoding="UTF-8"?>
<mxfile host="app.diagrams.net" agent="Mozilla/5.0 (Windows NT 10.0; Win64; x64) AppleWebKit/537.36 (KHTML, like Gecko) Chrome/140.0.0.0 Safari/537.36" version="28.2.5">
  <diagram name="Page-1" id="0NI845REnowD4Wna18q7">
    <mxGraphModel dx="1737" dy="878" grid="1" gridSize="10" guides="1" tooltips="1" connect="1" arrows="1" fold="1" page="1" pageScale="1" pageWidth="850" pageHeight="1100" background="light-dark(#FFFFFF,#FFFFFF)" math="0" shadow="0">
      <root>
        <mxCell id="0" />
        <mxCell id="1" parent="0" />
        <mxCell id="I6qQSWVUAQGKF_TWLeTj-165" value="" style="rounded=0;html=1;jettySize=auto;orthogonalLoop=1;fontSize=11;endArrow=open;endFill=0;endSize=8;strokeWidth=1;shadow=0;labelBackgroundColor=none;edgeStyle=orthogonalEdgeStyle;strokeColor=light-dark(#000000,#000000);" edge="1" parent="1" source="I6qQSWVUAQGKF_TWLeTj-174" target="I6qQSWVUAQGKF_TWLeTj-168">
          <mxGeometry relative="1" as="geometry" />
        </mxCell>
        <mxCell id="I6qQSWVUAQGKF_TWLeTj-166" value="&lt;font style=&quot;color: light-dark(rgb(0, 0, 0), rgb(0, 0, 0));&quot;&gt;Log in&lt;/font&gt;" style="rounded=1;whiteSpace=wrap;html=1;fontSize=12;glass=0;strokeWidth=1;shadow=0;fillColor=light-dark(#F59E0B,#F59E0B);strokeColor=light-dark(#000000,#000000);" vertex="1" parent="1">
          <mxGeometry x="350" y="213" width="120" height="40" as="geometry" />
        </mxCell>
        <mxCell id="I6qQSWVUAQGKF_TWLeTj-167" value="&lt;font style=&quot;color: light-dark(rgb(0, 0, 0), rgb(0, 0, 0)); font-size: 12px;&quot;&gt;Invalid&lt;/font&gt;" style="edgeStyle=orthogonalEdgeStyle;rounded=0;html=1;jettySize=auto;orthogonalLoop=1;fontSize=11;endArrow=open;endFill=0;endSize=8;strokeWidth=1;shadow=0;labelBackgroundColor=none;strokeColor=light-dark(#000000,#000000);entryX=1;entryY=0.5;entryDx=0;entryDy=0;" edge="1" parent="1" source="I6qQSWVUAQGKF_TWLeTj-168" target="I6qQSWVUAQGKF_TWLeTj-174">
          <mxGeometry x="0.0651" y="30" relative="1" as="geometry">
            <mxPoint as="offset" />
            <mxPoint x="600.090909090909" y="323" as="targetPoint" />
            <Array as="points">
              <mxPoint x="600" y="418" />
              <mxPoint x="600" y="313" />
            </Array>
          </mxGeometry>
        </mxCell>
        <mxCell id="I6qQSWVUAQGKF_TWLeTj-168" value="&lt;font style=&quot;color: light-dark(rgb(0, 0, 0), rgb(0, 0, 0));&quot;&gt;Check&lt;/font&gt;" style="rhombus;whiteSpace=wrap;html=1;shadow=0;fontFamily=Helvetica;fontSize=12;align=center;strokeWidth=1;spacing=6;spacingTop=-4;fillColor=light-dark(#F59E0B,#F59E0B);strokeColor=light-dark(#000000,#000000);" vertex="1" parent="1">
          <mxGeometry x="370" y="383" width="80" height="70" as="geometry" />
        </mxCell>
        <mxCell id="I6qQSWVUAQGKF_TWLeTj-169" value="&lt;font style=&quot;color: light-dark(rgb(0, 0, 0), rgb(0, 0, 0));&quot;&gt;Log out&lt;/font&gt;" style="rounded=1;whiteSpace=wrap;html=1;fontSize=12;glass=0;strokeWidth=1;shadow=0;strokeColor=light-dark(#000000,#000000);fillColor=light-dark(#F59E0B,#F59E0B);" vertex="1" parent="1">
          <mxGeometry x="350" y="987.5" width="120" height="40" as="geometry" />
        </mxCell>
        <mxCell id="I6qQSWVUAQGKF_TWLeTj-170" value="" style="ellipse;html=1;shape=endState;fillColor=light-dark(#F59E0B,#F59E0B);strokeColor=light-dark(#000000,#000000);" vertex="1" parent="1">
          <mxGeometry x="395" y="153" width="30" height="30" as="geometry" />
        </mxCell>
        <mxCell id="I6qQSWVUAQGKF_TWLeTj-171" value="" style="endArrow=none;html=1;rounded=0;strokeColor=light-dark(#000000,#000000);entryX=0.5;entryY=1;entryDx=0;entryDy=0;exitX=0.5;exitY=0;exitDx=0;exitDy=0;" edge="1" parent="1" source="I6qQSWVUAQGKF_TWLeTj-166" target="I6qQSWVUAQGKF_TWLeTj-170">
          <mxGeometry width="50" height="50" relative="1" as="geometry">
            <mxPoint x="385" y="213" as="sourcePoint" />
            <mxPoint x="435" y="163" as="targetPoint" />
          </mxGeometry>
        </mxCell>
        <mxCell id="I6qQSWVUAQGKF_TWLeTj-172" value="" style="ellipse;html=1;shape=endState;fillColor=light-dark(#F59E0B,#F59E0B);strokeColor=light-dark(#000000,#000000);" vertex="1" parent="1">
          <mxGeometry x="395" y="1057.5" width="30" height="30" as="geometry" />
        </mxCell>
        <mxCell id="I6qQSWVUAQGKF_TWLeTj-173" value="" style="rounded=0;html=1;jettySize=auto;orthogonalLoop=1;fontSize=11;endArrow=open;endFill=0;endSize=8;strokeWidth=1;shadow=0;labelBackgroundColor=none;edgeStyle=orthogonalEdgeStyle;strokeColor=light-dark(#000000,#000000);" edge="1" parent="1" source="I6qQSWVUAQGKF_TWLeTj-166" target="I6qQSWVUAQGKF_TWLeTj-174">
          <mxGeometry relative="1" as="geometry">
            <mxPoint x="410" y="253" as="sourcePoint" />
            <mxPoint x="410" y="513" as="targetPoint" />
          </mxGeometry>
        </mxCell>
        <mxCell id="I6qQSWVUAQGKF_TWLeTj-174" value="&lt;font style=&quot;color: light-dark(rgb(0, 0, 0), rgb(0, 0, 0));&quot;&gt;Authentication&lt;/font&gt;" style="rounded=1;whiteSpace=wrap;html=1;fontSize=12;glass=0;strokeWidth=1;shadow=0;fillColor=light-dark(#F59E0B,#F59E0B);strokeColor=light-dark(#000000,#000000);" vertex="1" parent="1">
          <mxGeometry x="350" y="293" width="120" height="40" as="geometry" />
        </mxCell>
        <mxCell id="I6qQSWVUAQGKF_TWLeTj-175" value="" style="html=1;points=[[0,0,0,0,5],[0,1,0,0,-5],[1,0,0,0,5],[1,1,0,0,-5]];perimeter=orthogonalPerimeter;outlineConnect=0;targetShapes=umlLifeline;portConstraint=eastwest;newEdgeStyle={&quot;curved&quot;:0,&quot;rounded&quot;:0};rotation=-90;strokeColor=light-dark(#000000,#000000);fillColor=light-dark(#F59E0B,#F59E0B);" vertex="1" parent="1">
          <mxGeometry x="405" y="160" width="10" height="676" as="geometry" />
        </mxCell>
        <mxCell id="I6qQSWVUAQGKF_TWLeTj-176" value="&lt;font style=&quot;color: light-dark(rgb(0, 0, 0), rgb(0, 0, 0));&quot;&gt;View products&lt;/font&gt;" style="rounded=1;whiteSpace=wrap;html=1;fontSize=12;glass=0;strokeWidth=1;shadow=0;fillColor=light-dark(#F59E0B,#F59E0B);strokeColor=light-dark(#000000,#000000);" vertex="1" parent="1">
          <mxGeometry x="100" y="600" width="120" height="40" as="geometry" />
        </mxCell>
        <mxCell id="I6qQSWVUAQGKF_TWLeTj-177" value="" style="endArrow=open;endFill=1;endSize=12;html=1;rounded=0;strokeColor=light-dark(#000000,#000000);entryX=0.5;entryY=0;entryDx=0;entryDy=0;" edge="1" parent="1" source="I6qQSWVUAQGKF_TWLeTj-175" target="I6qQSWVUAQGKF_TWLeTj-176">
          <mxGeometry width="160" relative="1" as="geometry">
            <mxPoint x="299.98000000000013" y="502.6600000000001" as="sourcePoint" />
            <mxPoint x="300" y="623" as="targetPoint" />
          </mxGeometry>
        </mxCell>
        <mxCell id="I6qQSWVUAQGKF_TWLeTj-178" value="" style="endArrow=open;endFill=1;endSize=12;html=1;rounded=0;strokeColor=light-dark(#000000,#000000);entryX=0.25;entryY=0;entryDx=0;entryDy=0;" edge="1" parent="1" target="I6qQSWVUAQGKF_TWLeTj-179">
          <mxGeometry width="160" relative="1" as="geometry">
            <mxPoint x="160" y="640" as="sourcePoint" />
            <mxPoint x="160" y="700" as="targetPoint" />
          </mxGeometry>
        </mxCell>
        <mxCell id="I6qQSWVUAQGKF_TWLeTj-179" value="&lt;font style=&quot;color: light-dark(rgb(0, 0, 0), rgb(0, 0, 0));&quot;&gt;Purchase products&lt;/font&gt;" style="rounded=1;whiteSpace=wrap;html=1;fontSize=12;glass=0;strokeWidth=1;shadow=0;strokeColor=light-dark(#000000,#000000);fillColor=light-dark(#F59E0B,#F59E0B);" vertex="1" parent="1">
          <mxGeometry x="190" y="703" width="120" height="40" as="geometry" />
        </mxCell>
        <mxCell id="I6qQSWVUAQGKF_TWLeTj-180" value="" style="html=1;points=[[0,0,0,0,5],[0,1,0,0,-5],[1,0,0,0,5],[1,1,0,0,-5]];perimeter=orthogonalPerimeter;outlineConnect=0;targetShapes=umlLifeline;portConstraint=eastwest;newEdgeStyle={&quot;curved&quot;:0,&quot;rounded&quot;:0};rotation=-90;strokeColor=light-dark(#000000,#000000);fillColor=light-dark(#F59E0B,#F59E0B);" vertex="1" parent="1">
          <mxGeometry x="402.5" y="620" width="10" height="630" as="geometry" />
        </mxCell>
        <mxCell id="I6qQSWVUAQGKF_TWLeTj-181" value="" style="endArrow=open;endFill=1;endSize=12;html=1;rounded=0;exitX=0.5;exitY=1;exitDx=0;exitDy=0;strokeColor=light-dark(#000000,#000000);" edge="1" parent="1" source="I6qQSWVUAQGKF_TWLeTj-168" target="I6qQSWVUAQGKF_TWLeTj-175">
          <mxGeometry width="160" relative="1" as="geometry">
            <mxPoint x="360" y="493" as="sourcePoint" />
            <mxPoint x="520" y="493" as="targetPoint" />
          </mxGeometry>
        </mxCell>
        <mxCell id="I6qQSWVUAQGKF_TWLeTj-182" value="&lt;font style=&quot;color: light-dark(rgb(0, 0, 0), rgb(0, 0, 0));&quot;&gt;Place Custom Orders&lt;/font&gt;" style="rounded=1;whiteSpace=wrap;html=1;fontSize=12;glass=0;strokeWidth=1;shadow=0;fillColor=light-dark(#F59E0B,#F59E0B);strokeColor=light-dark(#000000,#000000);" vertex="1" parent="1">
          <mxGeometry x="440" y="600" width="120" height="40" as="geometry" />
        </mxCell>
        <mxCell id="I6qQSWVUAQGKF_TWLeTj-183" value="" style="endArrow=open;endFill=1;endSize=12;html=1;rounded=0;strokeColor=light-dark(#000000,#000000);entryX=0.5;entryY=0;entryDx=0;entryDy=0;" edge="1" parent="1" source="I6qQSWVUAQGKF_TWLeTj-175" target="I6qQSWVUAQGKF_TWLeTj-182">
          <mxGeometry width="160" relative="1" as="geometry">
            <mxPoint x="520.0000000000002" y="503.59000000000015" as="sourcePoint" />
            <mxPoint x="659.98" y="623" as="targetPoint" />
          </mxGeometry>
        </mxCell>
        <mxCell id="I6qQSWVUAQGKF_TWLeTj-184" value="" style="endArrow=open;endFill=1;endSize=12;html=1;rounded=0;strokeColor=light-dark(#000000,#000000);exitX=0.5;exitY=1;exitDx=0;exitDy=0;entryX=0.5;entryY=0;entryDx=0;entryDy=0;" edge="1" parent="1" source="I6qQSWVUAQGKF_TWLeTj-182" target="I6qQSWVUAQGKF_TWLeTj-197">
          <mxGeometry width="160" relative="1" as="geometry">
            <mxPoint x="554.98" y="655" as="sourcePoint" />
            <mxPoint x="568.7500000000002" y="804.8899999999999" as="targetPoint" />
          </mxGeometry>
        </mxCell>
        <mxCell id="I6qQSWVUAQGKF_TWLeTj-185" value="&lt;font style=&quot;color: light-dark(rgb(0, 0, 0), rgb(0, 0, 0));&quot;&gt;Yes&lt;/font&gt;" style="text;html=1;align=center;verticalAlign=middle;resizable=0;points=[];autosize=1;strokeColor=none;fillColor=none;" vertex="1" parent="1">
          <mxGeometry x="365" y="451" width="40" height="30" as="geometry" />
        </mxCell>
        <mxCell id="I6qQSWVUAQGKF_TWLeTj-186" value="" style="endArrow=none;html=1;rounded=0;strokeColor=light-dark(#000000,#000000);entryX=0.5;entryY=1;entryDx=0;entryDy=0;exitX=0.5;exitY=0;exitDx=0;exitDy=0;" edge="1" parent="1">
          <mxGeometry width="50" height="50" relative="1" as="geometry">
            <mxPoint x="409.63" y="1057.5" as="sourcePoint" />
            <mxPoint x="409.63" y="1027.5" as="targetPoint" />
          </mxGeometry>
        </mxCell>
        <mxCell id="I6qQSWVUAQGKF_TWLeTj-187" value="" style="endArrow=open;endFill=1;endSize=12;html=1;rounded=0;strokeColor=light-dark(#000000,#000000);entryX=0.5;entryY=0;entryDx=0;entryDy=0;exitX=0.5;exitY=1;exitDx=0;exitDy=0;" edge="1" parent="1" source="I6qQSWVUAQGKF_TWLeTj-179" target="I6qQSWVUAQGKF_TWLeTj-192">
          <mxGeometry width="160" relative="1" as="geometry">
            <mxPoint x="160" y="740" as="sourcePoint" />
            <mxPoint x="248.66999999999985" y="804.7299999999998" as="targetPoint" />
          </mxGeometry>
        </mxCell>
        <mxCell id="I6qQSWVUAQGKF_TWLeTj-188" value="" style="endArrow=open;endFill=1;endSize=12;html=1;rounded=0;strokeColor=light-dark(#000000,#000000);" edge="1" parent="1" source="I6qQSWVUAQGKF_TWLeTj-180">
          <mxGeometry width="160" relative="1" as="geometry">
            <mxPoint x="409.89" y="947.5" as="sourcePoint" />
            <mxPoint x="409.89" y="987.5" as="targetPoint" />
          </mxGeometry>
        </mxCell>
        <mxCell id="I6qQSWVUAQGKF_TWLeTj-189" value="&lt;font style=&quot;color: light-dark(rgb(0, 0, 0), rgb(0, 0, 0));&quot;&gt;View bakers&lt;/font&gt;" style="rounded=1;whiteSpace=wrap;html=1;fontSize=12;glass=0;strokeWidth=1;shadow=0;fillColor=light-dark(#F59E0B,#F59E0B);strokeColor=light-dark(#000000,#000000);" vertex="1" parent="1">
          <mxGeometry x="270" y="600" width="120" height="40" as="geometry" />
        </mxCell>
        <mxCell id="I6qQSWVUAQGKF_TWLeTj-190" value="" style="endArrow=open;endFill=1;endSize=12;html=1;rounded=0;strokeColor=light-dark(#000000,#000000);entryX=0.5;entryY=0;entryDx=0;entryDy=0;" edge="1" parent="1" source="I6qQSWVUAQGKF_TWLeTj-175" target="I6qQSWVUAQGKF_TWLeTj-189">
          <mxGeometry width="160" relative="1" as="geometry">
            <mxPoint x="410" y="503" as="sourcePoint" />
            <mxPoint x="470" y="620.34" as="targetPoint" />
          </mxGeometry>
        </mxCell>
        <mxCell id="I6qQSWVUAQGKF_TWLeTj-191" value="" style="endArrow=open;endFill=1;endSize=12;html=1;rounded=0;strokeColor=light-dark(#000000,#000000);entryX=0.75;entryY=0;entryDx=0;entryDy=0;exitX=0.5;exitY=1;exitDx=0;exitDy=0;" edge="1" parent="1" source="I6qQSWVUAQGKF_TWLeTj-189" target="I6qQSWVUAQGKF_TWLeTj-179">
          <mxGeometry width="160" relative="1" as="geometry">
            <mxPoint x="300" y="635" as="sourcePoint" />
            <mxPoint x="330" y="697.34" as="targetPoint" />
          </mxGeometry>
        </mxCell>
        <mxCell id="I6qQSWVUAQGKF_TWLeTj-192" value="&lt;font style=&quot;color: light-dark(rgb(0, 0, 0), rgb(0, 0, 0));&quot;&gt;Track orders&lt;/font&gt;" style="rounded=1;whiteSpace=wrap;html=1;fontSize=12;glass=0;strokeWidth=1;shadow=0;strokeColor=light-dark(#000000,#000000);fillColor=light-dark(#F59E0B,#F59E0B);" vertex="1" parent="1">
          <mxGeometry x="190" y="800" width="120" height="40" as="geometry" />
        </mxCell>
        <mxCell id="I6qQSWVUAQGKF_TWLeTj-193" value="" style="endArrow=open;endFill=1;endSize=12;html=1;rounded=0;strokeColor=light-dark(#000000,#000000);exitX=0.493;exitY=0.997;exitDx=0;exitDy=0;exitPerimeter=0;" edge="1" parent="1" source="I6qQSWVUAQGKF_TWLeTj-192" target="I6qQSWVUAQGKF_TWLeTj-180">
          <mxGeometry width="160" relative="1" as="geometry">
            <mxPoint x="330" y="867" as="sourcePoint" />
            <mxPoint x="418.66999999999985" y="931.7299999999998" as="targetPoint" />
          </mxGeometry>
        </mxCell>
        <mxCell id="I6qQSWVUAQGKF_TWLeTj-194" value="&lt;font style=&quot;color: light-dark(rgb(0, 0, 0), rgb(0, 0, 0));&quot;&gt;View Blog Posts&lt;/font&gt;" style="rounded=1;whiteSpace=wrap;html=1;fontSize=12;glass=0;strokeWidth=1;shadow=0;fillColor=light-dark(#F59E0B,#F59E0B);strokeColor=light-dark(#000000,#000000);" vertex="1" parent="1">
          <mxGeometry x="600" y="600" width="120" height="40" as="geometry" />
        </mxCell>
        <mxCell id="I6qQSWVUAQGKF_TWLeTj-195" value="" style="endArrow=open;endFill=1;endSize=12;html=1;rounded=0;strokeColor=light-dark(#000000,#000000);entryX=0.5;entryY=0;entryDx=0;entryDy=0;" edge="1" parent="1" source="I6qQSWVUAQGKF_TWLeTj-175" target="I6qQSWVUAQGKF_TWLeTj-194">
          <mxGeometry width="160" relative="1" as="geometry">
            <mxPoint x="600.0000000000002" y="500" as="sourcePoint" />
            <mxPoint x="580" y="616.4099999999999" as="targetPoint" />
          </mxGeometry>
        </mxCell>
        <mxCell id="I6qQSWVUAQGKF_TWLeTj-196" value="" style="endArrow=open;endFill=1;endSize=12;html=1;rounded=0;strokeColor=light-dark(#000000,#000000);exitX=0.5;exitY=1;exitDx=0;exitDy=0;" edge="1" parent="1" source="I6qQSWVUAQGKF_TWLeTj-194" target="I6qQSWVUAQGKF_TWLeTj-180">
          <mxGeometry width="160" relative="1" as="geometry">
            <mxPoint x="655" y="662" as="sourcePoint" />
            <mxPoint x="600" y="830" as="targetPoint" />
          </mxGeometry>
        </mxCell>
        <mxCell id="I6qQSWVUAQGKF_TWLeTj-197" value="&lt;font style=&quot;color: light-dark(rgb(0, 0, 0), rgb(0, 0, 0));&quot;&gt;Message Bakers Via Chat&lt;/font&gt;" style="rounded=1;whiteSpace=wrap;html=1;fontSize=12;glass=0;strokeWidth=1;shadow=0;strokeColor=light-dark(#000000,#000000);fillColor=light-dark(#F59E0B,#F59E0B);" vertex="1" parent="1">
          <mxGeometry x="440" y="800" width="120" height="40" as="geometry" />
        </mxCell>
        <mxCell id="I6qQSWVUAQGKF_TWLeTj-198" value="" style="endArrow=open;endFill=1;endSize=12;html=1;rounded=0;strokeColor=light-dark(#000000,#000000);exitX=0.493;exitY=0.997;exitDx=0;exitDy=0;exitPerimeter=0;" edge="1" parent="1" source="I6qQSWVUAQGKF_TWLeTj-197" target="I6qQSWVUAQGKF_TWLeTj-180">
          <mxGeometry width="160" relative="1" as="geometry">
            <mxPoint x="660" y="887" as="sourcePoint" />
            <mxPoint x="579" y="950" as="targetPoint" />
          </mxGeometry>
        </mxCell>
      </root>
    </mxGraphModel>
  </diagram>
</mxfile>
